<svg width="12" height="15" viewBox="0 0 12 15" fill="none" xmlns="http://www.w3.org/2000/svg">
<path d="M6 0.5C8.88941 0.5 11.5 2.70683 11.5 6.15039C11.4999 7.26052 11.0523 8.52222 10.085 9.94824C9.17257 11.2933 7.81462 12.7546 6 14.3359C4.18538 12.7546 2.82743 11.2933 1.91504 9.94824C0.947738 8.52222 0.500105 7.26052 0.5 6.15039C0.5 2.70683 3.11059 0.5 6 0.5ZM6 1C3.20489 1 1 3.15827 1 6.15039C1.00011 7.16215 1.41873 8.27814 2.19141 9.46777C2.96743 10.6625 4.12533 11.9692 5.66309 13.374L6 13.6826L6.33691 13.374C7.87467 11.9692 9.03257 10.6625 9.80859 9.46777C10.5813 8.27814 10.9999 7.16215 11 6.15039C11 3.15827 8.79511 1 6 1ZM6 5C6.54886 5 7 5.45114 7 6C7 6.54886 6.54886 7 6 7C5.45114 7 5 6.54886 5 6C5 5.45114 5.45114 5 6 5Z" fill="white" stroke="white"/>
</svg>
